<svg id="visual" viewBox="0 0 960 540" width="960" height="540" xmlns="http://www.w3.org/2000/svg" xmlns:xlink="http://www.w3.org/1999/xlink" version="1.1"><rect x="0" y="0" width="960" height="540" fill="#002233"></rect><path d="M0 107L22.8 122.7C45.7 138.3 91.3 169.7 137 167.5C182.7 165.3 228.3 129.7 274 114.2C319.7 98.7 365.3 103.3 411.2 114.3C457 125.3 503 142.7 548.8 139.7C594.7 136.7 640.3 113.3 686 99.5C731.7 85.7 777.3 81.3 823 88.7C868.7 96 914.3 115 937.2 124.5L960 134L960 0L937.2 0C914.3 0 868.7 0 823 0C777.3 0 731.7 0 686 0C640.3 0 594.7 0 548.8 0C503 0 457 0 411.2 0C365.3 0 319.7 0 274 0C228.3 0 182.7 0 137 0C91.3 0 45.7 0 22.8 0L0 0Z" fill="#0066FF" stroke-linecap="round" stroke-linejoin="miter"></path></svg>